<?xml version="1.0" encoding="iso-8859-1"?>
<!-- Generator: Adobe Illustrator 19.0.0, SVG Export Plug-In . SVG Version: 6.00 Build 0)  -->
<svg version="1.1" id="Layer_1" xmlns="http://www.w3.org/2000/svg" xmlns:xlink="http://www.w3.org/1999/xlink" x="0px" y="0px"
	 viewBox="0 0 512 512" style="enable-background:new 0 0 512 512;" xml:space="preserve">
<circle style="fill:#F95428;" cx="256.054" cy="255.998" r="245.419"/>
<path style="fill:#E54728;" d="M122.962,82.46c42.77-42.776,97.406-66.443,153.315-71.037c-69.366-5.7-140.69,17.967-193.751,71.037
	c-95.846,95.846-95.846,251.23,0,347.076c53.061,53.07,124.385,76.737,193.751,71.037c-55.909-4.594-110.545-28.261-153.315-71.037
	C27.116,333.69,27.116,178.306,122.962,82.46z"/>
<path d="M256.06,512c-68.381,0-132.668-26.629-181.02-74.981c-48.352-48.352-74.98-112.64-74.98-181.02S26.689,123.333,75.04,74.981
	C123.392,26.628,187.68,0,256.06,0s132.666,26.628,181.02,74.981l0,0c99.814,99.814,99.814,262.224,0,362.038
	C388.728,485.371,324.44,512,256.06,512z M256.06,21.158c-62.729,0-121.702,24.428-166.058,68.783s-68.783,103.33-68.783,166.058
	s24.428,121.702,68.785,166.058c44.354,44.356,103.329,68.785,166.058,68.785c62.728,0,121.701-24.428,166.058-68.785
	c91.565-91.565,91.565-240.551,0-332.116l0,0C377.761,45.586,318.788,21.158,256.06,21.158z"/>
<path d="M281.908,73.045c-31.487,0-57.104,25.617-57.104,57.105v62.987h-31.867c-5.844,0-10.579,4.737-10.579,10.579
	c0,5.842,4.735,10.579,10.579,10.579h31.867v150.233c0,19.821-16.127,35.947-35.946,35.947s-35.946-16.127-35.946-35.947
	c0-5.842-4.735-10.579-10.579-10.579s-10.579,4.737-10.579,10.579c0,31.487,25.617,57.105,57.104,57.105
	s57.104-25.618,57.104-57.105V214.294h33.497c5.844,0,10.579-4.737,10.579-10.579s-4.735-10.579-10.579-10.579h-33.497V130.15
	c0-19.821,16.127-35.947,35.946-35.947c19.819,0,35.946,16.125,35.946,35.947c0,5.842,4.735,10.579,10.579,10.579
	c5.844,0,10.579-4.737,10.579-10.579C339.013,98.661,313.395,73.045,281.908,73.045z"/>
<path d="M344.844,371.148l32.424-32.424c4.131-4.131,4.131-10.83,0-14.96c-4.133-4.131-10.83-4.131-14.962,0l-32.424,32.424
	l-32.424-32.424c-4.133-4.131-10.83-4.131-14.962,0c-4.131,4.131-4.131,10.83,0,14.96l32.424,32.424l-32.424,32.424
	c-4.131,4.131-4.131,10.83,0,14.96c2.066,2.065,4.775,3.099,7.481,3.099s5.415-1.033,7.481-3.099l32.424-32.424l32.424,32.424
	c2.066,2.065,4.775,3.099,7.481,3.099s5.415-1.033,7.481-3.099c4.131-4.131,4.131-10.83,0-14.96L344.844,371.148z"/>
<g>
</g>
<g>
</g>
<g>
</g>
<g>
</g>
<g>
</g>
<g>
</g>
<g>
</g>
<g>
</g>
<g>
</g>
<g>
</g>
<g>
</g>
<g>
</g>
<g>
</g>
<g>
</g>
<g>
</g>
</svg>
